<mxfile host="Electron" modified="2024-01-30T20:39:32.489Z" agent="Mozilla/5.0 (Windows NT 10.0; Win64; x64) AppleWebKit/537.36 (KHTML, like Gecko) draw.io/22.1.2 Chrome/114.0.5735.289 Electron/25.9.4 Safari/537.36" etag="TFAaU778ePYYrCxpyhY3" version="22.1.2" type="device">
  <diagram name="Pagina-1" id="RSHBfIMpOffrro7l3Vwa">
    <mxGraphModel dx="1182" dy="690" grid="1" gridSize="10" guides="1" tooltips="1" connect="1" arrows="1" fold="1" page="1" pageScale="1" pageWidth="1654" pageHeight="1169" math="0" shadow="0">
      <root>
        <mxCell id="0" />
        <mxCell id="1" parent="0" />
        <mxCell id="ah_cLngfnBNbMHacUlx5-1" value="telegramBotReader" style="shape=process;whiteSpace=wrap;html=1;backgroundOutline=1;" parent="1" vertex="1">
          <mxGeometry x="160" y="50" width="170" height="50" as="geometry" />
        </mxCell>
        <mxCell id="ah_cLngfnBNbMHacUlx5-2" value="sqlOperationList" style="shape=process;whiteSpace=wrap;html=1;backgroundOutline=1;" parent="1" vertex="1">
          <mxGeometry x="350" y="50" width="170" height="50" as="geometry" />
        </mxCell>
        <mxCell id="ah_cLngfnBNbMHacUlx5-11" value="telegramBotConstructor" style="shape=process;whiteSpace=wrap;html=1;backgroundOutline=1;" parent="1" vertex="1">
          <mxGeometry x="540" y="50" width="170" height="50" as="geometry" />
        </mxCell>
        <mxCell id="ah_cLngfnBNbMHacUlx5-14" value="" style="shape=actor;whiteSpace=wrap;html=1;" parent="1" vertex="1">
          <mxGeometry x="40" y="60" width="20" height="30" as="geometry" />
        </mxCell>
        <mxCell id="ah_cLngfnBNbMHacUlx5-19" value="" style="endArrow=none;dashed=1;html=1;dashPattern=1 3;strokeWidth=2;rounded=0;entryX=0.5;entryY=1;entryDx=0;entryDy=0;" parent="1" edge="1">
          <mxGeometry width="50" height="50" relative="1" as="geometry">
            <mxPoint x="50" y="390" as="sourcePoint" />
            <mxPoint x="50" y="90" as="targetPoint" />
          </mxGeometry>
        </mxCell>
        <mxCell id="ah_cLngfnBNbMHacUlx5-20" value="" style="shape=flexArrow;endArrow=classic;html=1;rounded=0;endWidth=23.428571428571427;endSize=8.045714285714286;width=24.571428571428573;" parent="1" edge="1">
          <mxGeometry width="50" height="50" relative="1" as="geometry">
            <mxPoint x="250" y="200" as="sourcePoint" />
            <mxPoint x="430" y="200" as="targetPoint" />
          </mxGeometry>
        </mxCell>
        <mxCell id="ah_cLngfnBNbMHacUlx5-26" value="Text" style="edgeLabel;html=1;align=center;verticalAlign=middle;resizable=0;points=[];" parent="ah_cLngfnBNbMHacUlx5-20" vertex="1" connectable="0">
          <mxGeometry x="0.0714" y="-1" relative="1" as="geometry">
            <mxPoint x="-7" as="offset" />
          </mxGeometry>
        </mxCell>
        <mxCell id="ah_cLngfnBNbMHacUlx5-27" value="Richiesta constraints attivi" style="edgeLabel;html=1;align=center;verticalAlign=middle;resizable=0;points=[];" parent="ah_cLngfnBNbMHacUlx5-20" vertex="1" connectable="0">
          <mxGeometry x="0.0016" relative="1" as="geometry">
            <mxPoint as="offset" />
          </mxGeometry>
        </mxCell>
        <mxCell id="ah_cLngfnBNbMHacUlx5-31" value="" style="shape=flexArrow;endArrow=classic;html=1;rounded=0;endWidth=23.428571428571427;endSize=8.045714285714286;width=24.571428571428573;" parent="1" edge="1">
          <mxGeometry width="50" height="50" relative="1" as="geometry">
            <mxPoint x="440" y="250" as="sourcePoint" />
            <mxPoint x="620" y="250" as="targetPoint" />
          </mxGeometry>
        </mxCell>
        <mxCell id="ah_cLngfnBNbMHacUlx5-32" value="Text" style="edgeLabel;html=1;align=center;verticalAlign=middle;resizable=0;points=[];" parent="ah_cLngfnBNbMHacUlx5-31" vertex="1" connectable="0">
          <mxGeometry x="0.0714" y="-1" relative="1" as="geometry">
            <mxPoint x="-7" as="offset" />
          </mxGeometry>
        </mxCell>
        <mxCell id="ah_cLngfnBNbMHacUlx5-33" value="Risultato lista constraints" style="edgeLabel;html=1;align=center;verticalAlign=middle;resizable=0;points=[];" parent="ah_cLngfnBNbMHacUlx5-31" vertex="1" connectable="0">
          <mxGeometry x="0.0016" relative="1" as="geometry">
            <mxPoint as="offset" />
          </mxGeometry>
        </mxCell>
        <mxCell id="ah_cLngfnBNbMHacUlx5-45" value="" style="shape=flexArrow;endArrow=none;html=1;rounded=0;endWidth=23.428571428571427;endSize=8.045714285714286;width=24.571428571428573;startArrow=block;startFill=0;endFill=0;" parent="1" edge="1">
          <mxGeometry width="50" height="50" relative="1" as="geometry">
            <mxPoint x="50" y="360" as="sourcePoint" />
            <mxPoint x="810" y="360" as="targetPoint" />
          </mxGeometry>
        </mxCell>
        <mxCell id="ah_cLngfnBNbMHacUlx5-46" value="Text" style="edgeLabel;html=1;align=center;verticalAlign=middle;resizable=0;points=[];" parent="ah_cLngfnBNbMHacUlx5-45" vertex="1" connectable="0">
          <mxGeometry x="0.0714" y="-1" relative="1" as="geometry">
            <mxPoint x="-7" as="offset" />
          </mxGeometry>
        </mxCell>
        <mxCell id="ah_cLngfnBNbMHacUlx5-47" value="Comunicazione del risultato" style="edgeLabel;html=1;align=center;verticalAlign=middle;resizable=0;points=[];" parent="ah_cLngfnBNbMHacUlx5-45" vertex="1" connectable="0">
          <mxGeometry x="0.0016" relative="1" as="geometry">
            <mxPoint as="offset" />
          </mxGeometry>
        </mxCell>
        <mxCell id="ah_cLngfnBNbMHacUlx5-51" value="" style="shape=flexArrow;endArrow=classic;html=1;rounded=0;endWidth=23.428571428571427;endSize=8.045714285714286;width=24.571428571428573;" parent="1" edge="1">
          <mxGeometry width="50" height="50" relative="1" as="geometry">
            <mxPoint x="60" y="150" as="sourcePoint" />
            <mxPoint x="240" y="150" as="targetPoint" />
          </mxGeometry>
        </mxCell>
        <mxCell id="ah_cLngfnBNbMHacUlx5-52" value="Text" style="edgeLabel;html=1;align=center;verticalAlign=middle;resizable=0;points=[];" parent="ah_cLngfnBNbMHacUlx5-51" vertex="1" connectable="0">
          <mxGeometry x="0.0714" y="-1" relative="1" as="geometry">
            <mxPoint x="-7" as="offset" />
          </mxGeometry>
        </mxCell>
        <mxCell id="ah_cLngfnBNbMHacUlx5-53" value="Richiesta constraints attivi" style="edgeLabel;html=1;align=center;verticalAlign=middle;resizable=0;points=[];" parent="ah_cLngfnBNbMHacUlx5-51" vertex="1" connectable="0">
          <mxGeometry x="0.0016" relative="1" as="geometry">
            <mxPoint as="offset" />
          </mxGeometry>
        </mxCell>
        <mxCell id="LPKmBDdZ_OsliKgjNvAM-1" value="telegramBotWriter" style="shape=process;whiteSpace=wrap;html=1;backgroundOutline=1;" parent="1" vertex="1">
          <mxGeometry x="730" y="50" width="170" height="50" as="geometry" />
        </mxCell>
        <mxCell id="LPKmBDdZ_OsliKgjNvAM-13" value="" style="shape=flexArrow;endArrow=classic;html=1;rounded=0;endWidth=23.428571428571427;endSize=8.045714285714286;width=24.571428571428573;" parent="1" edge="1">
          <mxGeometry width="50" height="50" relative="1" as="geometry">
            <mxPoint x="630" y="290" as="sourcePoint" />
            <mxPoint x="810" y="290" as="targetPoint" />
          </mxGeometry>
        </mxCell>
        <mxCell id="LPKmBDdZ_OsliKgjNvAM-14" value="Text" style="edgeLabel;html=1;align=center;verticalAlign=middle;resizable=0;points=[];" parent="LPKmBDdZ_OsliKgjNvAM-13" vertex="1" connectable="0">
          <mxGeometry x="0.0714" y="-1" relative="1" as="geometry">
            <mxPoint x="-7" as="offset" />
          </mxGeometry>
        </mxCell>
        <mxCell id="LPKmBDdZ_OsliKgjNvAM-15" value="Messaggio formattato" style="edgeLabel;html=1;align=center;verticalAlign=middle;resizable=0;points=[];" parent="LPKmBDdZ_OsliKgjNvAM-13" vertex="1" connectable="0">
          <mxGeometry x="0.0016" relative="1" as="geometry">
            <mxPoint as="offset" />
          </mxGeometry>
        </mxCell>
        <mxCell id="__00yLmxAtHdVP4HEzj_-2" value="" style="endArrow=none;dashed=1;html=1;dashPattern=1 3;strokeWidth=2;rounded=0;entryX=0.5;entryY=1;entryDx=0;entryDy=0;" edge="1" parent="1">
          <mxGeometry width="50" height="50" relative="1" as="geometry">
            <mxPoint x="244.58" y="400" as="sourcePoint" />
            <mxPoint x="244.58" y="100" as="targetPoint" />
          </mxGeometry>
        </mxCell>
        <mxCell id="__00yLmxAtHdVP4HEzj_-3" value="" style="endArrow=none;dashed=1;html=1;dashPattern=1 3;strokeWidth=2;rounded=0;entryX=0.5;entryY=1;entryDx=0;entryDy=0;" edge="1" parent="1">
          <mxGeometry width="50" height="50" relative="1" as="geometry">
            <mxPoint x="434.58" y="400" as="sourcePoint" />
            <mxPoint x="434.58" y="100" as="targetPoint" />
          </mxGeometry>
        </mxCell>
        <mxCell id="__00yLmxAtHdVP4HEzj_-4" value="" style="endArrow=none;dashed=1;html=1;dashPattern=1 3;strokeWidth=2;rounded=0;entryX=0.5;entryY=1;entryDx=0;entryDy=0;" edge="1" parent="1">
          <mxGeometry width="50" height="50" relative="1" as="geometry">
            <mxPoint x="624.58" y="400" as="sourcePoint" />
            <mxPoint x="624.58" y="100" as="targetPoint" />
          </mxGeometry>
        </mxCell>
        <mxCell id="__00yLmxAtHdVP4HEzj_-5" value="" style="endArrow=none;dashed=1;html=1;dashPattern=1 3;strokeWidth=2;rounded=0;entryX=0.5;entryY=1;entryDx=0;entryDy=0;" edge="1" parent="1">
          <mxGeometry width="50" height="50" relative="1" as="geometry">
            <mxPoint x="814.58" y="400" as="sourcePoint" />
            <mxPoint x="814.58" y="100" as="targetPoint" />
          </mxGeometry>
        </mxCell>
      </root>
    </mxGraphModel>
  </diagram>
</mxfile>
